<svg xmlns="http://www.w3.org/2000/svg" viewBox="0 0 200 200"><defs><style>.s-body{fill:#fecf02}.s-cape{fill:#fff}.s-gloves{fill:#e21f26}.s-skin{fill:#fce3c4}.s-line{fill:none;stroke:#242424;stroke-width:2;stroke-linecap:round;stroke-linejoin:round}</style></defs><g class="s-line"><!-- Ground --><path d="M0,150 C40,140 80,160 120,150 C160,140 200,160 200,160 V200 H0 Z" fill="#a0522d"/><path d="M100,150 v50" fill="none" stroke="#542" stroke-width="20"/><!-- Saitama --><g transform="translate(0,60)"><circle cx="100" cy="50" r="20" class="s-skin"/><path d="M95,48 a1,1 0 1,1 0,-0.01 M105,48 a1,1 0 1,1 0,-0.01"/><path d="M92,55 a5,2 0 0,0 16,0"/><rect x="85" y="70" width="30" height="45" class="s-body"/><path d="M100,115 v35"/><circle cx="100" cy="150" r="15" class="s-gloves"/><path class="s-cape" d="M100,70 L80,120 L120,120 Z"/></g></g></svg>