<svg xmlns="http://www.w3.org/2000/svg" viewBox="0 0 200 200"><defs><style>.s-body{fill:#fecf02}.s-cape{fill:#fff}.s-gloves{fill:#e21f26}.s-skin{fill:#fce3c4}.s-line{fill:none;stroke:#242424;stroke-width:2;stroke-linecap:round;stroke-linejoin:round}</style></defs><g class="s-line"><!-- Server --><rect x="30" y="40" width="80" height="120" rx="5" fill="#aaa"/><path d="M40,60 h60 M40,80 h60 M40,140 h60" stroke="#555"/><circle cx="45" cy="100" r="2" fill="lime"/><circle cx="45" cy="120" r="2" fill="yellow"/><!-- Saitama --><g transform="translate(40, 20)"><path class="s-cape" d="M100 70 q-20 80 0 100 q20 -20 0 -100z"/><circle cx="100" cy="60" r="20" class="s-skin"/><path d="M95,58 a1,1 0 1,1 0,-0.01 M105,58 a1,1 0 1,1 0,-0.01"/><path d="M98,65 h4"/><rect x="85" y="80" width="30" height="50" class="s-body"/><text x="100" y="45" font-family="sans-serif" font-size="24" text-anchor="middle">?</text></g></g></svg>