<svg xmlns="http://www.w3.org/2000/svg" viewBox="0 0 200 200"><defs><style>.s-body{fill:#fecf02}.s-cape{fill:#fff}.s-boots{fill:#e21f26}.s-skin{fill:#fce3c4}.s-line{fill:none;stroke:#242424;stroke-width:2;stroke-linecap:round;stroke-linejoin:round}</style></defs><g class="s-line"><!-- Fire and Ice --><path d="M10,180 C40,120 20,60 50,20 C 80,60 60,120 90,180 z" fill="rgba(255,100,0,0.6)"/><path d="M190,180 C160,120 180,60 150,20 C 120,60 140,120 110,180 z" fill="rgba(0,180,255,0.6)"/><!-- Saitama --><g transform="translate(0 20)"><path class="s-cape" d="M100 70 q-20 80 0 100 q20 -20 0 -100z"/><circle cx="100" cy="60" r="20" class="s-skin"/><path d="M95,58 a1,1 0 1,1 0,-0.01 M105,58 a1,1 0 1,1 0,-0.01"/><path d="M95,65 h10"/><rect x="85" y="80" width="30" height="50" class="s-body"/><rect x="85" y="130" width="12" height="15" class="s-boots"/><rect x="103" y="130" width="12" height="15" class="s-boots"/></g></g></svg>