<svg xmlns="http://www.w3.org/2000/svg" viewBox="0 0 200 200"><defs><style>.s-body{fill:#fecf02}.s-cape{fill:#fff}.s-boots{fill:#e21f26}.s-skin{fill:#fce3c4}.s-line{fill:none;stroke:#242424;stroke-width:2;stroke-linecap:round;stroke-linejoin:round}</style></defs><g class="s-line"><!-- Afterimages --><g opacity="0.3" transform="translate(-60, 5)"><path d="M140,95 v25 l-15,15" class="s-body" stroke-width="20"/><path d="M140,120 l15,15" class="s-body" stroke-width="20"/></g><g opacity="0.6" transform="translate(-30, -5)"><path d="M140,95 v25 l-15,15" class="s-body" stroke-width="20"/><path d="M140,120 l15,15" class="s-body" stroke-width="20"/></g><!-- Saitama --><g transform="translate(30,0)"><path class="s-cape" d="M140,95 L120,150 L160,150 Z"/><circle cx="140" cy="80" r="15" class="s-skin"/><path d="M137,78 a1,1 0 1,1 0,-0.01 M143,78 a1,1 0 1,1 0,-0.01"/><path d="M135,83 h10"/><path d="M140,95 v25 l-15,15" class="s-body" stroke-width="20"/><rect x="120" y="135" width="10" height="10" class="s-boots"/><path d="M140,120 l15,15" class="s-body" stroke-width="20"/><rect x="150" y="135" width="10" height="10" class="s-boots"/></g></g></svg>