<svg xmlns="http://www.w3.org/2000/svg" viewBox="0 0 200 200"><defs><style>.s-body{fill:#fecf02}.s-cape{fill:#fff}.s-gloves,.s-boots{fill:#e21f26}.s-skin{fill:#fce3c4}.s-line{fill:none;stroke:#242424;stroke-width:2;stroke-linecap:round;stroke-linejoin:round}.s-ruler{fill:#fecf02;stroke:#242424;stroke-width:2}</style></defs><g><!-- Ruler --><rect x="10" y="150" width="180" height="20" class="s-ruler"/><path d="M20 150v-5 M30 150v-10 M40 150v-5 M50 150v-15 M60 150v-5 M70 150v-10 M80 150v-5 M90 150v-10 M100 150v-15 M110 150v-5 M120 150v-10 M130 150v-5 M140 150v-10 M150 150v-15 M160 150v-5 M170 150v-10 M180 150v-5" stroke="#242424" stroke-width="1.5"/><!-- Saitama --><g class="s-line"><path class="s-cape" d="M100 70 q-20 80 0 100 q20 -20 0 -100z"/><circle cx="100" cy="60" r="20" class="s-skin"/><path d="M95,58 a1,1 0 1,1 0,-0.01 M105,58 a1,1 0 1,1 0,-0.01"/><path d="M100,65 a3,3 0 0,0 0,2"/><rect x="85" y="80" width="30" height="50" class="s-body"/><rect x="85" y="130" width="12" height="15" class="s-boots"/><rect x="103" y="130" width="12" height="15" class="s-boots"/><path d="M85 95 l-20 -5"/><circle cx="65" cy="90" r="10" class="s-gloves"/><path d="M115 95 l20 -5"/><circle cx="135" cy="90" r="10" class="s-gloves"/></g></g></svg>