<svg xmlns="http://www.w3.org/2000/svg" viewBox="0 0 200 200"><defs><style>.s-body{fill:#fecf02}.s-cape{fill:#fff}.s-boots{fill:#e21f26}.s-skin{fill:#fce3c4}.s-line{fill:none;stroke:#242424;stroke-width:2;stroke-linecap:round;stroke-linejoin:round}</style></defs><g class="s-line"><!-- Exploded Scale --><path d="M40,180 L160,180 L150,150 L50,150 Z" fill="#ccc"/><circle cx="100" cy="120" r="40" fill="#242424"/><path d="M100,120 l20-20" stroke="#f00" stroke-width="3"/><text x="100" y="115" font-family="monospace" font-size="24" text-anchor="middle" fill="#f00" transform="rotate(-15 100 120)">OVER 9000</text><path d="M90,150 l-30-30 m80,0 l30-30 m-30,10 l-20,25 m20-15 l20,20" stroke="#e21f26" stroke-width="3"/><!-- Saitama --><g transform="translate(0 -20)"><path class="s-cape" d="M100 70 q-20 80 0 100 q20 -20 0 -100z"/><circle cx="100" cy="60" r="20" class="s-skin"/><path d="M95,58 a1,1 0 1,1 0,-0.01 M105,58 a1,1 0 1,1 0,-0.01"/><path d="M100,65 a3,3 0 0,0 0,2"/><rect x="85" y="80" width="30" height="50" class="s-body"/><rect x="85" y="130" width="12" height="15" class="s-boots"/><rect x="103" y="130" width="12" height="15" class="s-boots"/></g></g></svg>