<svg xmlns="http://www.w3.org/2000/svg" viewBox="0 0 200 200"><defs><radialGradient id="grad" cx="50%" cy="50%" r="50%" fx="50%" fy="50%"><stop offset="0%" stop-color="#fecf02" stop-opacity="1"/><stop offset="100%" stop-color="#e21f26" stop-opacity="0.3"/></radialGradient><style>.s-body{fill:#fecf02}.s-cape{fill:#fff}.s-gloves{fill:#e21f26}.s-skin{fill:#fce3c4}.s-line{fill:none;stroke:#242424;stroke-width:2;stroke-linecap:round;stroke-linejoin:round}</style></defs><g><!-- Energy Aura --><circle cx="100" cy="100" r="90" fill="url(#grad)" opacity="0.6"/><g class="s-line"><!-- Saitama --><g transform="translate(0 20)"><path class="s-cape" d="M100,95 L90,155 L110,155 Z"/><rect x="85" y="105" width="30" height="45" class="s-body"/><circle cx="100" cy="85" r="20" class="s-skin"/><path d="M95,83 a1,1 0 1,1 0,-0.01 M105,83 a1,1 0 1,1 0,-0.01"/><path d="M92,90 a5,2 0 0,0 16,0"/><path d="M85,120 l-20,0"/><circle cx="65" cy="120" r="12" class="s-gloves"/><path d="M115,120 l20,0"/><circle cx="135" cy="120" r="12" class="s-gloves"/></g></g></g></svg>