<svg xmlns="http://www.w3.org/2000/svg" viewBox="0 0 200 200"><defs><style>.s-body{fill:#fecf02}.s-apron{fill:#fff}.s-gloves{fill:#e21f26}.s-skin{fill:#fce3c4}.s-line{fill:none;stroke:#242424;stroke-width:2;stroke-linecap:round;stroke-linejoin:round}</style></defs><g class="s-line"><!-- Cabbage --><circle cx="60" cy="140" r="30" fill="#90ee90"/><path d="M60,110 l-10,30 l10,10 l10,-10 l10,10" stroke="#5a905a"/><path d="M90,140 L30,140" stroke-width="3"/><!-- Saitama --><g transform="translate(50)"><rect x="85" y="80" width="30" height="50" class="s-body"/><path d="M85 85 l30 0 v40 l-15 10 l-15 -10 z" class="s-apron"/><circle cx="100" cy="60" r="20" class="s-skin"/><path d="M95,58 a1,1 0 1,1 0,-0.01 M105,58 a1,1 0 1,1 0,-0.01"/><path d="M98,65 h4"/><path d="M85,95 l-30,30"/><path d="M55,125 l-10,0 l-5-5" stroke-width="4"/></g></g></svg>