<svg xmlns="http://www.w3.org/2000/svg" viewBox="0 0 200 200"><defs><style>.s-body{fill:#fecf02}.s-cape{fill:#fff}.s-gloves{fill:#e21f26}.s-skin{fill:#fce3c4}.s-line{fill:none;stroke:#242424;stroke-width:2;stroke-linecap:round;stroke-linejoin:round}</style></defs><g class="s-line"><!-- Beaker --><path d="M40,30 L40,160 a10,10 0 0,0 10,10 h100 a10,10 0 0,0 10,-10 V30" fill="rgba(173,216,230,0.5)"/><path d="M40,30 L160,30"/><path d="M50,60 h100 M50,90 h100 M50,120 h100" stroke="#88c0f0" stroke-dasharray="4"/><!-- Saitama looking in --><g transform="translate(100 90)"><path class="s-cape" d="M0,0 l-15,40 h30z" transform="translate(0, -25)"/><rect x="-15" y="-5" width="30" height="30" class="s-body"/><circle cx="0" cy="-20" r="15" class="s-skin"/><path d="M-5,-22 a1,1 0 1,1 0,-0.01 M5,-22 a1,1 0 1,1 0,-0.01"/><circle cx="25" cy="5" r="8" class="s-gloves"/><circle cx="-25" cy="5" r="8" class="s-gloves"/><path d="M-15 5 L-25 5 M15 5 L25 5"/></g></g></svg>