<svg xmlns="http://www.w3.org/2000/svg" viewBox="0 0 200 200"><defs><style>.s-coat{fill:#fff}.s-skin{fill:#fce3c4}.s-line{fill:none;stroke:#242424;stroke-width:2;stroke-linecap:round;stroke-linejoin:round}</style></defs><g class="s-line"><!-- Microscope --><path d="M80,160 H40 v-10 H80"/><path d="M60,150 V100 a20,20 0 0,1 20,-20 h20"/><path d="M100,80 V60 H80"/><path d="M80,60 L70,40"/><circle cx="60,130" r="15" fill="#e0f0ff"/><path d="M60,130 Q50,120 40,130" stroke-width="1"/><!-- Saitama --><g transform="translate(50, 20)"><rect x="85" y="80" width="30" height="50" class="s-coat"/><path d="M85 80 l15 15 v35 h-15 z m30 0 l-15 15 v35 h15 z"/><circle cx="100" cy="60" r="20" class="s-skin"/><path d="M95,58 a1,1 0 1,1 0,-0.01 M105,58 a1,1 0 1,1 0,-0.01"/><path d="M98,65 h4"/><path d="M100,80 L100,85"/></g></g></svg>