<svg xmlns="http://www.w3.org/2000/svg" viewBox="0 0 200 200"><defs><style>.s-body{fill:#fecf02}.s-cape{fill:#fff}.s-gloves{fill:#e21f26}.s-skin{fill:#fce3c4}.s-line{fill:none;stroke:#242424;stroke-width:2;stroke-linecap:round;stroke-linejoin:round}</style></defs><g class="s-line"><!-- Pressure Waves --><path d="M80,100 a20,20 0 0,1 0,-40 a20,20 0 0,1 0,40" opacity="0.8" stroke-width="1.5" transform="translate(-80,0)"/><path d="M80,100 a30,30 0 0,1 0,-60 a30,30 0 0,1 0,60" opacity="0.6" stroke-width="1.5" transform="translate(-80,0)"/><path d="M80,100 a40,40 0 0,1 0,-80 a40,40 0 0,1 0,80" opacity="0.4" stroke-width="1.5" transform="translate(-80,0)"/><!-- Saitama --><g transform="translate(40,40) rotate(10)"><path class="s-cape" d="M100,95 L90,155 L110,155 Z"/><rect x="85" y="105" width="30" height="45" class="s-body"/><circle cx="100" cy="85" r="20" class="s-skin"/><path d="M95,83 a1,1 0 1,1 0,-0.01 M105,83 a1,1 0 1,1 0,-0.01"/><path d="M95,90 h10"/><path d="M85,120 l-60,-20"/><circle cx="25" cy="100" r="12" class="s-gloves"/></g></g></svg>