<svg xmlns="http://www.w3.org/2000/svg" viewBox="0 0 200 200"><defs><style>.s-body{fill:#fecf02}.s-cape{fill:#fff}.s-boots{fill:#e21f26}.s-skin{fill:#fce3c4}.s-line{fill:none;stroke:#242424;stroke-width:2;stroke-linecap:round;stroke-linejoin:round}</style></defs><g class="s-line"><!-- Melting Clock --><path d="M40,80 a40,40 0 1,0 80,0 a20,20 0 1,1 -80,0" fill="#f5f5f5"/><path d="M80,80 L80,50 M80,80 L100,90"/><path d="M120,80 Q130,120 100,140 T60,180" fill="none" stroke="#f5f5f5" stroke-width="15"/><!-- Saitama --><g transform="translate(40, 20)"><path class="s-cape" d="M100 70 q-20 80 0 100 q20 -20 0 -100z"/><circle cx="100" cy="60" r="20" class="s-skin"/><path d="M95,58 a1,1 0 1,1 0,-0.01 M105,58 a1,1 0 1,1 0,-0.01"/><path d="M98,65 h4"/><rect x="85" y="80" width="30" height="50" class="s-body"/><rect x="85" y="130" width="12" height="15" class="s-boots"/><rect x="103" y="130" width="12" height="15" class="s-boots"/></g></g></svg>